<svg width="16" height="16" viewBox="0 0 16 16" fill="none" xmlns="http://www.w3.org/2000/svg">
<path fill-rule="evenodd" clip-rule="evenodd" d="M8.63861 1.14185C8.55401 0.859861 8.29448 0.666748 8.00008 0.666748C7.70568 0.666748 7.44615 0.859861 7.36155 1.14185L7.10408 2.00008H2.66675C1.56218 2.00008 0.666748 2.89551 0.666748 4.00008V10.6667C0.666748 11.7713 1.56218 12.6667 2.66675 12.6667H3.90406L3.36153 14.4752C3.25573 14.8278 3.45585 15.1995 3.80851 15.3053C4.16117 15.4111 4.53283 15.2109 4.63863 14.8583L5.2961 12.6667H10.7041L11.3615 14.8583C11.4673 15.2109 11.839 15.4111 12.1916 15.3053C12.5443 15.1995 12.7444 14.8278 12.6386 14.4752L12.0961 12.6667H13.3334C14.438 12.6667 15.3334 11.7713 15.3334 10.6667V4.00008C15.3334 2.89551 14.438 2.00008 13.3334 2.00008H8.89608L8.63861 1.14185ZM2.00008 4.00008C2.00008 3.63189 2.29856 3.33341 2.66675 3.33341H7.60008H8.40008H13.3334C13.7016 3.33341 14.0001 3.63189 14.0001 4.00008V10.6667C14.0001 11.0349 13.7016 11.3334 13.3334 11.3334H11.2001H4.80008H2.66675C2.29856 11.3334 2.00008 11.0349 2.00008 10.6667V4.00008ZM7.26301 4.55287C6.37649 4.1096 5.33342 4.75426 5.33342 5.74543V8.92142C5.33342 9.91255 6.37649 10.5572 7.26301 10.1139L10.439 8.52602C11.4217 8.03462 11.4217 6.63221 10.439 6.14085L7.26301 4.55287ZM6.66675 5.74543L9.84268 7.33342L6.66675 8.92142V5.74543Z" fill="#5F488A"/>
</svg>
