<svg width="16" height="16" viewBox="0 0 16 16" fill="none" xmlns="http://www.w3.org/2000/svg">
<path d="M8.00043 14.4349C11.5544 14.4349 14.4354 11.5539 14.4354 7.99994C14.4354 4.44599 11.5544 1.56494 8.00043 1.56494C4.44648 1.56494 1.56543 4.44599 1.56543 7.99994C1.56543 11.5539 4.44648 14.4349 8.00043 14.4349Z" stroke="white" stroke-linecap="round"/>
<path d="M10.8453 9.65747C10.5489 10.155 10.1299 10.5681 9.62834 10.8575C9.12673 11.1468 8.55929 11.3026 7.98027 11.31C7.4143 11.3036 6.85899 11.1552 6.36536 10.8782C5.87174 10.6013 5.45563 10.2047 5.15527 9.72497" stroke="white" stroke-linecap="round"/>
<path d="M5.905 6.655C6.05964 6.655 6.185 6.52964 6.185 6.375C6.185 6.22036 6.05964 6.095 5.905 6.095C5.75036 6.095 5.625 6.22036 5.625 6.375C5.625 6.52964 5.75036 6.655 5.905 6.655Z" stroke="white" stroke-linecap="round"/>
<path d="M10.0896 6.65497C10.2442 6.65497 10.3696 6.52961 10.3696 6.37497C10.3696 6.22033 10.2442 6.09497 10.0896 6.09497C9.93493 6.09497 9.80957 6.22033 9.80957 6.37497C9.80957 6.52961 9.93493 6.65497 10.0896 6.65497Z" stroke="white" stroke-linecap="round"/>
</svg>
