<svg width="20" height="20" viewBox="0 0 20 20" fill="none" xmlns="http://www.w3.org/2000/svg">
<path d="M16 5.99979V9.20679C15.6731 9.11425 15.3383 9.05232 15 9.02179V5.99979C15 5.86718 14.9473 5.74 14.8536 5.64624C14.7598 5.55247 14.6326 5.49979 14.5 5.49979C14.3674 5.49979 14.2402 5.55247 14.1464 5.64624C14.0527 5.74 14 5.86718 14 5.99979V9.02179C13.6617 9.05244 13.3269 9.11437 13 9.20679V4.49979C13 4.36718 12.9473 4.24 12.8536 4.14624C12.7598 4.05247 12.6326 3.99979 12.5 3.99979C12.3674 3.99979 12.2402 4.05247 12.1464 4.14624C12.0527 4.24 12 4.36718 12 4.49979V8.49979C12 8.6324 11.9473 8.75958 11.8536 8.85334C11.7598 8.94711 11.6326 8.99979 11.5 8.99979C11.3674 8.99979 11.2402 8.94711 11.1464 8.85334C11.0527 8.75958 11 8.6324 11 8.49979V3.49979C11 3.36718 10.9473 3.24 10.8536 3.14624C10.7598 3.05247 10.6326 2.99979 10.5 2.99979C10.3674 2.99979 10.2402 3.05247 10.1464 3.14624C10.0527 3.24 10 3.36718 10 3.49979V8.49979C10 8.6324 9.94732 8.75958 9.85355 8.85334C9.75979 8.94711 9.63261 8.99979 9.5 8.99979C9.36739 8.99979 9.24021 8.94711 9.14645 8.85334C9.05268 8.75958 9 8.6324 9 8.49979V4.49979C9 4.36718 8.94732 4.24 8.85355 4.14624C8.75979 4.05247 8.63261 3.99979 8.5 3.99979C8.36739 3.99979 8.24021 4.05247 8.14645 4.14624C8.05268 4.24 8 4.36718 8 4.49979V10.4998C8.00462 10.6006 7.97854 10.7005 7.9252 10.7863C7.87186 10.872 7.79378 10.9395 7.70125 10.9799C7.60873 11.0203 7.50612 11.0317 7.40698 11.0126C7.30785 10.9935 7.21685 10.9447 7.146 10.8728L7.138 10.8648C6.918 10.6448 6.704 10.4308 6.422 10.2898C5.725 9.94079 4.199 9.71479 4.015 10.7878C4.191 10.9248 4.371 11.0598 4.552 11.1958C5.066 11.5808 5.586 11.9708 6.028 12.4308L7.356 13.8148C8.11 14.5998 8.675 15.5018 9.214 16.4378C9.284 16.5608 9.376 16.6678 9.482 16.7548L9.49 16.7728L9.19 17.7588C8.83864 17.568 8.54714 17.2835 8.348 16.9368C7.848 16.0708 7.333 15.2338 6.635 14.5068L5.307 13.1238C4.865 12.6638 4.342 12.2758 3.824 11.8918C3.624 11.7428 3.424 11.5958 3.232 11.4448C3.15979 11.3884 3.10137 11.3164 3.06117 11.2341C3.02098 11.1518 3.00005 11.0614 3 10.9698C3 10.2158 3.536 9.39479 4.217 9.17979C5.127 8.87379 6.013 8.96679 6.869 9.39479L7 9.46479V4.49979C6.99989 4.25498 7.05971 4.01386 7.17422 3.79748C7.28874 3.5811 7.45447 3.39604 7.65696 3.25845C7.85945 3.12086 8.09254 3.03492 8.33589 3.00814C8.57923 2.98135 8.82543 3.01454 9.053 3.10479C9.13967 2.78745 9.32826 2.5074 9.58973 2.30777C9.8512 2.10814 10.171 2 10.5 2C10.829 2 11.1488 2.10814 11.4103 2.30777C11.6717 2.5074 11.8603 2.78745 11.947 3.10479C12.1746 3.01454 12.4208 2.98135 12.6641 3.00814C12.9075 3.03492 13.1405 3.12086 13.343 3.25845C13.5455 3.39604 13.7113 3.5811 13.8258 3.79748C13.9403 4.01386 14.0001 4.25498 14 4.49979V4.58479C14.2263 4.50478 14.4685 4.48025 14.7063 4.51325C14.944 4.54626 15.1704 4.63585 15.3663 4.77449C15.5623 4.91312 15.7221 5.09676 15.8324 5.30998C15.9426 5.52319 16.0001 5.75975 16 5.99979ZM19 14.4998C19.0001 15.2831 18.7959 16.0528 18.4073 16.7329C18.0188 17.413 17.4594 17.9799 16.7846 18.3776C16.1098 18.7752 15.3429 18.9899 14.5597 19.0002C13.7765 19.0106 13.0041 18.8164 12.319 18.4368L10.529 18.9808C10.4582 19.0019 10.383 19.0035 10.3113 18.9853C10.2397 18.9672 10.1743 18.93 10.122 18.8778C10.0698 18.8255 10.0326 18.7601 10.0145 18.6885C9.99633 18.6168 9.9979 18.5416 10.019 18.4708L10.563 16.6818C10.2304 16.081 10.0397 15.412 10.0056 14.7262C9.97141 14.0403 10.0947 13.3557 10.3659 12.7248C10.6372 12.094 11.0492 11.5335 11.5705 11.0865C12.0918 10.6394 12.7084 10.3176 13.3733 10.1457C14.0381 9.97373 14.7335 9.95623 15.4061 10.0945C16.0788 10.2328 16.7109 10.5232 17.254 10.9434C17.7971 11.3637 18.2368 11.9027 18.5394 12.5191C18.8421 13.1356 18.9996 13.8131 19 14.4998ZM12.5 12.9998C12.3674 12.9998 12.2402 13.0525 12.1464 13.1462C12.0527 13.24 12 13.3672 12 13.4998C12 13.6324 12.0527 13.7596 12.1464 13.8533C12.2402 13.9471 12.3674 13.9998 12.5 13.9998H16.5C16.6326 13.9998 16.7598 13.9471 16.8536 13.8533C16.9473 13.7596 17 13.6324 17 13.4998C17 13.3672 16.9473 13.24 16.8536 13.1462C16.7598 13.0525 16.6326 12.9998 16.5 12.9998H12.5ZM12 15.4998C12 15.6324 12.0527 15.7596 12.1464 15.8533C12.2402 15.9471 12.3674 15.9998 12.5 15.9998H14.5C14.6326 15.9998 14.7598 15.9471 14.8536 15.8533C14.9473 15.7596 15 15.6324 15 15.4998C15 15.3672 14.9473 15.24 14.8536 15.1462C14.7598 15.0525 14.6326 14.9998 14.5 14.9998H12.5C12.3674 14.9998 12.2402 15.0525 12.1464 15.1462C12.0527 15.24 12 15.3672 12 15.4998Z" fill="#5F488A"/>
</svg>
