<svg width="17" height="17" viewBox="0 0 17 17" fill="none" xmlns="http://www.w3.org/2000/svg">
<path d="M7.49305 3.901C7.13505 3.971 6.74305 4.203 6.43505 4.747C6.40262 4.80413 6.35925 4.8543 6.30742 4.89467C6.25559 4.93503 6.19632 4.96479 6.13299 4.98225C6.06966 4.9997 6.00351 5.00452 5.93832 4.99641C5.87313 4.9883 5.81018 4.96744 5.75305 4.935C5.69593 4.90256 5.64575 4.85919 5.60539 4.80736C5.56502 4.75554 5.53526 4.69627 5.51781 4.63294C5.50035 4.56961 5.49554 4.50346 5.50364 4.43827C5.51175 4.37308 5.53262 4.31012 5.56505 4.253C6.00605 3.477 6.63305 3.05 7.30105 2.92C7.9226 2.80261 8.56543 2.93211 9.09305 3.281C9.57705 3.601 9.96805 4.124 9.98005 4.751C9.99305 5.406 9.59505 5.997 8.86105 6.431C8.36305 6.725 8.16905 6.925 8.08605 7.058C8.01605 7.17 8.00005 7.272 8.00005 7.5C8.00005 7.63261 7.94738 7.75979 7.85361 7.85355C7.75984 7.94732 7.63266 8 7.50005 8C7.36745 8 7.24027 7.94732 7.1465 7.85355C7.05273 7.75979 7.00005 7.63261 7.00005 7.5C7.00005 7.228 7.01405 6.89 7.23705 6.53C7.44705 6.193 7.80605 5.893 8.35205 5.57C8.88705 5.253 8.98405 4.952 8.98105 4.772C8.97605 4.565 8.83905 4.312 8.54105 4.115C8.23252 3.91088 7.85692 3.83419 7.49305 3.901V3.901ZM7.75005 10.5C7.94897 10.5 8.13973 10.421 8.28038 10.2803C8.42104 10.1397 8.50005 9.94891 8.50005 9.75C8.50005 9.55109 8.42104 9.36032 8.28038 9.21967C8.13973 9.07902 7.94897 9 7.75005 9C7.55114 9 7.36038 9.07902 7.21972 9.21967C7.07907 9.36032 7.00005 9.55109 7.00005 9.75C7.00005 9.94891 7.07907 10.1397 7.21972 10.2803C7.36038 10.421 7.55114 10.5 7.75005 10.5ZM7.50005 1.76959e-07C6.36654 -0.000264282 5.25267 0.295896 4.26897 0.859089C3.28527 1.42228 2.46595 2.23293 1.89232 3.21058C1.31869 4.18823 1.01069 5.29889 0.99889 6.43234C0.987091 7.56579 1.2719 8.68262 1.82505 9.672L1.03005 11.754C0.963883 11.9271 0.947098 12.1151 0.981572 12.2972C1.01605 12.4792 1.10042 12.6481 1.22529 12.785C1.35015 12.9219 1.5106 13.0214 1.68872 13.0725C1.86685 13.1235 2.05564 13.124 2.23405 13.074L4.72105 12.377C5.60204 12.7933 6.56534 13.0061 7.5397 12.9999C8.51406 12.9936 9.47455 12.7684 10.3501 12.3408C11.2257 11.9132 11.9939 11.2943 12.598 10.5298C13.2021 9.76525 13.6265 8.8747 13.84 7.92399C14.0535 6.97328 14.0505 5.98674 13.8312 5.03735C13.6119 4.08796 13.182 3.20001 12.5733 2.43919C11.9646 1.67836 11.1926 1.06412 10.3144 0.641914C9.43627 0.219704 8.47443 0.000323258 7.50005 1.76959e-07V1.76959e-07ZM2.00005 6.5C2.0005 5.30143 2.39246 4.13581 3.1163 3.1805C3.84013 2.22518 4.85622 1.53246 6.00997 1.20774C7.16371 0.883016 8.39195 0.944066 9.50781 1.3816C10.6237 1.81913 11.5661 2.6092 12.1916 3.63159C12.8171 4.65398 13.0916 5.85272 12.9731 7.04543C12.8547 8.23813 12.3499 9.35951 11.5356 10.2389C10.7212 11.1184 9.6419 11.7077 8.4618 11.9173C7.28169 12.1269 6.06543 11.9452 4.99805 11.4L4.82405 11.31L1.96405 12.111L2.93305 9.575L2.80505 9.365C2.2772 8.50271 1.99856 7.51103 2.00005 6.5V6.5ZM10.4631 16C9.52738 16.001 8.60257 15.7996 7.7521 15.4095C6.90163 15.0194 6.14565 14.4498 5.53605 13.74C6.11036 13.8956 6.70123 13.9819 7.29605 13.997C8.22236 14.6513 9.32899 15.0017 10.4631 15C11.3651 15 12.2151 14.783 12.9651 14.4L13.1391 14.31L15.9991 15.111L15.0301 12.575L15.1581 12.365C15.6681 11.531 15.9631 10.551 15.9631 9.5C15.9646 8.38955 15.6284 7.30489 14.9991 6.39C14.9909 5.7951 14.912 5.20328 14.7641 4.627C15.4559 5.23624 16.01 5.98602 16.3892 6.82631C16.7684 7.66661 16.964 8.57811 16.9631 9.5C16.9631 10.651 16.6631 11.733 16.1371 12.672L16.9331 14.754C16.9991 14.927 17.0159 15.1149 16.9814 15.2968C16.947 15.4788 16.8627 15.6475 16.738 15.7844C16.6133 15.9213 16.453 16.0208 16.275 16.0719C16.0971 16.1231 15.9084 16.1238 15.7301 16.074L13.2421 15.377C12.3991 15.777 11.4561 16 10.4621 16H10.4631Z" fill="#5F488A"/>
</svg>
