<svg width="18" height="14" viewBox="0 0 18 14" fill="none" xmlns="http://www.w3.org/2000/svg">
<path d="M3.99996 7.8335H11.5V6.16683H3.99996V7.8335ZM3.99996 5.3335H11.5V3.66683H3.99996V5.3335ZM2.33329 13.6668C1.87496 13.6668 1.48274 13.5038 1.15663 13.1777C0.829959 12.851 0.666626 12.4585 0.666626 12.0002V2.00016C0.666626 1.54183 0.829959 1.14961 1.15663 0.823496C1.48274 0.496829 1.87496 0.333496 2.33329 0.333496H15.6666C16.125 0.333496 16.5175 0.496829 16.8441 0.823496C17.1702 1.14961 17.3333 1.54183 17.3333 2.00016V12.0002C17.3333 12.4585 17.1702 12.851 16.8441 13.1777C16.5175 13.5038 16.125 13.6668 15.6666 13.6668H2.33329ZM2.33329 12.0002H15.6666V2.00016H2.33329V12.0002ZM2.33329 12.0002V2.00016V12.0002Z" fill="#5F488A"/>
</svg>
