<svg width="20" height="20" viewBox="0 0 20 20" fill="none" xmlns="http://www.w3.org/2000/svg">
<path d="M14.8425 15.7275L13.0662 13.95C12.1899 14.6322 11.1106 15.0018 10 15C8.88941 15.0018 7.81012 14.6322 6.93375 13.95L5.1575 15.7275C6.5101 16.8744 8.22661 17.5027 10 17.5C11.8462 17.5 13.5375 16.8325 14.8425 15.7275ZM15.7275 14.8425C16.8744 13.4899 17.5027 11.7734 17.5 10C17.5 8.15375 16.8325 6.4625 15.7275 5.1575L13.95 6.93375C14.6075 7.78125 15 8.845 15 10C15 11.155 14.6075 12.2188 13.95 13.0662L15.7275 14.8425ZM14.8425 4.2725C13.4899 3.12559 11.7734 2.49729 10 2.5C8.15375 2.5 6.4625 3.1675 5.1575 4.2725L6.93375 6.05C7.81012 5.36781 8.88941 4.99822 10 5C11.155 5 12.2188 5.3925 13.0662 6.05L14.8425 4.2725ZM4.2725 5.1575C3.12559 6.5101 2.49729 8.22661 2.5 10C2.5 11.8462 3.1675 13.5375 4.2725 14.8425L6.05 13.0662C5.36781 12.1899 4.99822 11.1106 5 10C5 8.845 5.3925 7.78125 6.05 6.93375L4.2725 5.1575ZM12.4225 12.8625C12.5809 12.7281 12.7281 12.5809 12.8625 12.4225C13.4163 11.7687 13.75 10.9225 13.75 10C13.751 9.4549 13.6327 8.91619 13.4034 8.42168C13.174 7.92718 12.8392 7.48886 12.4225 7.1375C11.746 6.56341 10.8873 6.24881 10 6.25C9.4549 6.24899 8.91619 6.3673 8.42168 6.59663C7.92718 6.82596 7.48886 7.16075 7.1375 7.5775C6.58375 8.23125 6.25 9.0775 6.25 10C6.24899 10.5451 6.3673 11.0838 6.59663 11.5783C6.82596 12.0728 7.16075 12.5111 7.5775 12.8625C8.23125 13.4163 9.0775 13.75 10 13.75C10.9237 13.75 11.7687 13.4163 12.4225 12.8625ZM10 18.75C7.67936 18.75 5.45376 17.8281 3.81282 16.1872C2.17187 14.5462 1.25 12.3206 1.25 10C1.25 7.67936 2.17187 5.45376 3.81282 3.81282C5.45376 2.17187 7.67936 1.25 10 1.25C12.3206 1.25 14.5462 2.17187 16.1872 3.81282C17.8281 5.45376 18.75 7.67936 18.75 10C18.75 12.3206 17.8281 14.5462 16.1872 16.1872C14.5462 17.8281 12.3206 18.75 10 18.75Z" fill="#5F488A"/>
</svg>
