<svg width="20" height="20" viewBox="0 0 20 20" fill="none" xmlns="http://www.w3.org/2000/svg">
<g clip-path="url(#clip0_17_5250)">
<path d="M17.8444 5.55566H2.15553C1.87852 5.55566 1.61287 5.6657 1.41699 5.86157C1.22112 6.05745 1.11108 6.3231 1.11108 6.60011V16.7334C1.11108 17.0104 1.22112 17.2761 1.41699 17.472C1.61287 17.6678 1.87852 17.7779 2.15553 17.7779H17.8444C18.1214 17.7779 18.3871 17.6678 18.583 17.472C18.7788 17.2761 18.8889 17.0104 18.8889 16.7334V6.60011C18.8889 6.3231 18.7788 6.05745 18.583 5.86157C18.3871 5.6657 18.1214 5.55566 17.8444 5.55566ZM17.7778 16.6668H2.2222V6.66678H17.7778V16.6668Z" fill="#5F488A"/>
<path d="M16.7445 1.66688C16.7445 1.51954 16.6859 1.37823 16.5817 1.27405C16.4776 1.16986 16.3363 1.11133 16.1889 1.11133H3.96669C3.81935 1.11133 3.67804 1.16986 3.57385 1.27405C3.46966 1.37823 3.41113 1.51954 3.41113 1.66688V2.22244H16.7445V1.66688Z" fill="#5F488A"/>
<path d="M17.8445 3.88905C17.8445 3.74171 17.786 3.6004 17.6818 3.49621C17.5776 3.39203 17.4363 3.3335 17.2889 3.3335H2.8445C2.69715 3.3335 2.55585 3.39203 2.45166 3.49621C2.34747 3.6004 2.28894 3.74171 2.28894 3.88905V4.44461H17.8445V3.88905Z" fill="#5F488A"/>
<path d="M7.12224 14.8834C7.2762 14.9832 7.45541 15.0372 7.6389 15.0389C7.77114 15.0386 7.9018 15.0102 8.02224 14.9556L13.45 12.5334C13.6178 12.4604 13.7606 12.3401 13.861 12.1871C13.9613 12.0341 14.0147 11.8552 14.0147 11.6722C14.0147 11.4893 13.9613 11.3103 13.861 11.1574C13.7606 11.0044 13.6178 10.884 13.45 10.8111L8.02224 8.38891C7.8786 8.32512 7.72132 8.29819 7.56465 8.31054C7.40798 8.3229 7.25686 8.37415 7.125 8.45967C6.99315 8.54518 6.88471 8.66225 6.80953 8.80026C6.73435 8.93827 6.6948 9.09286 6.69446 9.25002V14.0945C6.69474 14.2511 6.73399 14.4053 6.80866 14.543C6.88334 14.6807 6.9911 14.7977 7.12224 14.8834ZM7.47224 9.25002C7.47206 9.22212 7.47914 9.19465 7.49277 9.1703C7.50641 9.14595 7.52613 9.12557 7.55001 9.11113C7.5791 9.10309 7.60982 9.10309 7.6389 9.11113C7.66084 9.10613 7.68363 9.10613 7.70557 9.11113L13.1333 11.5278C13.164 11.5403 13.19 11.562 13.2079 11.5898C13.2258 11.6176 13.2347 11.6503 13.2333 11.6834C13.2343 11.7156 13.2252 11.7474 13.2073 11.7743C13.1894 11.8012 13.1635 11.8218 13.1333 11.8334L7.70557 14.2556C7.68192 14.2692 7.6551 14.2764 7.62779 14.2764C7.60049 14.2764 7.57366 14.2692 7.55001 14.2556C7.52683 14.2404 7.50766 14.2198 7.49411 14.1957C7.48057 14.1715 7.47307 14.1444 7.47224 14.1167V9.25002Z" fill="#5F488A"/>
</g>
<defs>
<clipPath id="clip0_17_5250">
<rect width="20" height="20" fill="white"/>
</clipPath>
</defs>
</svg>
