<svg width="16" height="16" viewBox="0 0 16 16" fill="none" xmlns="http://www.w3.org/2000/svg">
<path d="M3.73307 13.2803L4.74905 12.4675L4.75652 12.4618C4.96833 12.2923 5.07521 12.2068 5.19445 12.1459C5.30144 12.0913 5.41552 12.0515 5.5332 12.0273C5.66585 12.0001 5.80402 12.0001 6.08138 12.0001H11.8687C12.614 12.0001 12.9871 12.0001 13.272 11.8549C13.5229 11.7271 13.727 11.5229 13.8548 11.272C14 10.9871 14 10.6144 14 9.86915V4.79802C14 4.05274 14 3.67955 13.8548 3.39461C13.727 3.14373 13.5225 2.9399 13.2716 2.81207C12.9864 2.66675 12.6135 2.66675 11.8668 2.66675H4.13347C3.38673 2.66675 3.01308 2.66675 2.72787 2.81207C2.47698 2.9399 2.27315 3.14373 2.14533 3.39461C2 3.67983 2 4.05347 2 4.80021V12.4475C2 13.158 2 13.5131 2.14564 13.6956C2.2723 13.8543 2.46429 13.9466 2.66732 13.9464C2.90077 13.9461 3.17829 13.7241 3.73307 13.2803Z" stroke="#5F488A" stroke-linecap="round" stroke-linejoin="round"/>
</svg>
