<svg width="32" height="32" viewBox="0 0 32 32" fill="none" xmlns="http://www.w3.org/2000/svg">
<rect width="32" height="32" rx="8" fill="white"/>
<g clip-path="url(#clip0_102_5671)">
<path d="M22 8.5H14V11H15V9.5H22C22.3 9.5 22.5 9.7 22.5 10V15.5C22.5 15.8 22.3 16 22 16H15.5V19.5H12.85L11 20.95V19.5H9.5C9.2 19.5 9 19.3 9 19V13.5C9 13.2 9.2 13 9.5 13H16V12H9.5C8.65 12 8 12.65 8 13.5V19C8 19.85 8.65 20.5 9.5 20.5H10V23.05L13.15 20.5H16.5V17H22C22.85 17 23.5 16.35 23.5 15.5V10C23.5 9.15 22.85 8.5 22 8.5Z" fill="#5F488A"/>
<path d="M10.1016 18.45H11.3016L11.6016 17.65H13.1516L13.4516 18.45H14.6516L12.9516 14H11.7516L10.1016 18.45ZM12.3516 15.25L12.8516 16.8H11.8516L12.3516 15.25Z" fill="#5F488A"/>
<path d="M17 15.5C17.55 15.5 18.3 15.35 19 15C19.7 15.35 20.5 15.5 21 15.5V14.5C21 14.5 20.5 14.5 19.95 14.3C20.55 13.7 21 12.8 21 11.5V11H19.5V10H18.5V11H17V12H19.95C19.85 12.9 19.45 13.45 19 13.8C18.7 13.55 18.4 13.2 18.2 12.75H17.15C17.35 13.4 17.65 13.9 18.05 14.3C17.55 14.5 17.1 14.5 17 14.5V15.5Z" fill="#5F488A"/>
</g>
<defs>
<clipPath id="clip0_102_5671">
<rect width="18" height="18" fill="white" transform="translate(7 7)"/>
</clipPath>
</defs>
</svg>
