<svg width="45" height="45" viewBox="0 0 45 45" fill="none" xmlns="http://www.w3.org/2000/svg">
<path d="M22.5 39.375C31.8198 39.375 39.375 31.8198 39.375 22.5C39.375 13.1802 31.8198 5.625 22.5 5.625C13.1802 5.625 5.625 13.1802 5.625 22.5C5.625 31.8198 13.1802 39.375 22.5 39.375Z" stroke="#C4C4C4" stroke-width="2" stroke-miterlimit="10"/>
<path d="M15.4688 28.125H29.5312" stroke="#C4C4C4" stroke-width="2" stroke-linecap="round" stroke-linejoin="round"/>
<path d="M16.1719 21.0938C17.3369 21.0938 18.2812 20.1494 18.2812 18.9844C18.2812 17.8194 17.3369 16.875 16.1719 16.875C15.0069 16.875 14.0625 17.8194 14.0625 18.9844C14.0625 20.1494 15.0069 21.0938 16.1719 21.0938Z" fill="#C4C4C4"/>
<path d="M28.8281 21.0938C29.9931 21.0938 30.9375 20.1494 30.9375 18.9844C30.9375 17.8194 29.9931 16.875 28.8281 16.875C27.6631 16.875 26.7188 17.8194 26.7188 18.9844C26.7188 20.1494 27.6631 21.0938 28.8281 21.0938Z" fill="#C4C4C4"/>
</svg>
