<svg width="32" height="32" viewBox="0 0 32 32" fill="none" xmlns="http://www.w3.org/2000/svg">
<rect width="32" height="32" rx="8" fill="white"/>
<path d="M20.6667 14.6665H11.3333C10.597 14.6665 10 15.2635 10 15.9998V21.3332C10 22.0696 10.597 22.6665 11.3333 22.6665H20.6667C21.403 22.6665 22 22.0696 22 21.3332V15.9998C22 15.2635 21.403 14.6665 20.6667 14.6665Z" stroke="#212025" stroke-width="1.5" stroke-linecap="round" stroke-linejoin="round"/>
<path d="M12 12C12 11.4696 12.2107 10.9609 12.5858 10.5858C12.9609 10.2107 13.4696 10 14 10H18C18.5304 10 19.0391 10.2107 19.4142 10.5858C19.7893 10.9609 20 11.4696 20 12V14.6667H12V12Z" stroke="#212025" stroke-width="1.5" stroke-linecap="round" stroke-linejoin="round"/>
</svg>
