<svg width="16" height="16" viewBox="0 0 16 16" fill="none" xmlns="http://www.w3.org/2000/svg">
<path d="M7.66687 8.00001H3.61248M3.49756 8.53148L2.82772 10.5324C2.46085 11.6283 2.27742 12.1762 2.40906 12.5136C2.52337 12.8067 2.7689 13.0288 3.07187 13.1134C3.42074 13.2107 3.94767 12.9736 5.00154 12.4994L11.7578 9.45908C12.7865 8.99614 13.3008 8.76474 13.4597 8.44321C13.5979 8.16388 13.5979 7.83608 13.4597 7.55674C13.3008 7.23528 12.7865 7.00381 11.7578 6.54091L4.98989 3.49536C3.93919 3.02256 3.41385 2.78615 3.06533 2.88313C2.76265 2.96735 2.51715 3.18892 2.40243 3.4814C2.27034 3.8182 2.45181 4.36495 2.81477 5.45846L3.49886 7.51954C3.56119 7.70734 3.59237 7.80128 3.60467 7.89728C3.61559 7.98254 3.61547 8.06881 3.60434 8.15401C3.59179 8.25001 3.56038 8.34381 3.49756 8.53148Z" stroke="#5F488A" stroke-width="2" stroke-linecap="round" stroke-linejoin="round"/>
</svg>
