<svg width="16" height="16" viewBox="0 0 16 16" fill="none" xmlns="http://www.w3.org/2000/svg">
<path d="M12.6667 6.6665H3.33333C2.59695 6.6665 2 7.26346 2 7.99984V13.3332C2 14.0696 2.59695 14.6665 3.33333 14.6665H12.6667C13.403 14.6665 14 14.0696 14 13.3332V7.99984C14 7.26346 13.403 6.6665 12.6667 6.6665Z" stroke="#5F488A" stroke-width="1.5" stroke-linecap="round" stroke-linejoin="round"/>
<path d="M4 4C4 3.46957 4.21071 2.96086 4.58579 2.58579C4.96086 2.21071 5.46957 2 6 2H10C10.5304 2 11.0391 2.21071 11.4142 2.58579C11.7893 2.96086 12 3.46957 12 4V6.66667H4V4Z" stroke="#5F488A" stroke-width="1.5" stroke-linecap="round" stroke-linejoin="round"/>
</svg>
