<svg width="18" height="18" viewBox="0 0 18 18" fill="none" xmlns="http://www.w3.org/2000/svg">
<g clip-path="url(#clip0_102_5862)">
<path d="M15 1.5H7V4H8V2.5H15C15.3 2.5 15.5 2.7 15.5 3V8.5C15.5 8.8 15.3 9 15 9H8.5V12.5H5.85L4 13.95V12.5H2.5C2.2 12.5 2 12.3 2 12V6.5C2 6.2 2.2 6 2.5 6H9V5H2.5C1.65 5 1 5.65 1 6.5V12C1 12.85 1.65 13.5 2.5 13.5H3V16.05L6.15 13.5H9.5V10H15C15.85 10 16.5 9.35 16.5 8.5V3C16.5 2.15 15.85 1.5 15 1.5Z" fill="#5F488A"/>
<path d="M3.10156 11.45H4.30156L4.60156 10.65H6.15156L6.45156 11.45H7.65156L5.95156 7H4.75156L3.10156 11.45ZM5.35156 8.25L5.85156 9.8H4.85156L5.35156 8.25Z" fill="#5F488A"/>
<path d="M10 8.5C10.55 8.5 11.3 8.35 12 8C12.7 8.35 13.5 8.5 14 8.5V7.5C14 7.5 13.5 7.5 12.95 7.3C13.55 6.7 14 5.8 14 4.5V4H12.5V3H11.5V4H10V5H12.95C12.85 5.9 12.45 6.45 12 6.8C11.7 6.55 11.4 6.2 11.2 5.75H10.15C10.35 6.4 10.65 6.9 11.05 7.3C10.55 7.5 10.1 7.5 10 7.5V8.5Z" fill="#5F488A"/>
</g>
<defs>
<clipPath id="clip0_102_5862">
<rect width="18" height="18" fill="white"/>
</clipPath>
</defs>
</svg>
