<svg width="16" height="16" viewBox="0 0 16 16" fill="none" xmlns="http://www.w3.org/2000/svg">
<g clip-path="url(#clip0_2134_7358)">
<path d="M13.3816 5.38172C13.3819 3.89666 12.7787 2.54897 11.8052 1.57619C10.8327 0.602906 9.48473 -0.000218691 7.99988 5.94844e-08C6.51507 -0.000218691 5.16713 0.602906 4.1946 1.57644C3.22107 2.54897 2.61791 3.89666 2.61816 5.38172C2.61791 6.37503 2.8892 7.30778 3.36048 8.10612H3.36023C3.36073 8.10713 3.36173 8.10812 3.36223 8.10913C3.36348 8.11112 3.36426 8.11312 3.36548 8.11512L3.36598 8.11491C3.7091 8.72228 4.20035 9.20003 4.58301 9.641C4.77573 9.8615 4.94088 10.0707 5.05176 10.2664C5.16338 10.4632 5.21995 10.6386 5.2237 10.8142V13.7962C5.22395 14.7162 5.96926 15.4617 6.88948 15.4619H7.12823C7.29088 15.78 7.61823 16 7.99988 16C8.38154 16 8.70888 15.78 8.87157 15.4619H9.11032C10.0305 15.4617 10.7758 14.7162 10.7761 13.7962V10.8145V10.8142C10.7798 10.6386 10.8364 10.4631 10.948 10.2664C11.1137 9.97209 11.404 9.65053 11.7218 9.30037C12.0366 8.95103 12.3775 8.57063 12.634 8.11487L12.6343 8.11509C12.6353 8.11359 12.636 8.11163 12.637 8.11009C12.6378 8.10859 12.6388 8.10759 12.6395 8.10609H12.6393C13.1106 7.30778 13.3819 6.37503 13.3816 5.38172ZM9.74451 14.4303C9.58107 14.5933 9.35935 14.6929 9.11032 14.6931H6.88945C6.64041 14.6929 6.4187 14.5933 6.25526 14.4303C6.09235 14.2669 5.99273 14.0449 5.99248 13.7962V13.6297L9.74648 14.4278C9.74576 14.4286 9.74526 14.4296 9.74451 14.4303ZM10.0073 13.7962C10.0073 13.851 10.0005 13.904 9.99126 13.9558L5.99251 13.1057V12.0581L10.0073 12.9117V13.7962ZM10.0073 12.3874L5.99251 11.5337V11.1906H10.0073V12.3874ZM11.9731 7.72319L11.9699 7.72847L11.9679 7.73197C11.7021 8.21347 11.2516 8.66472 10.8379 9.13522C10.6314 9.37197 10.4342 9.61525 10.2795 9.88628C10.1857 10.0515 10.1111 10.2312 10.0628 10.4216H5.93695C5.88863 10.2309 5.81407 10.0515 5.71995 9.88628C5.4877 9.48059 5.1616 9.13375 4.84829 8.78484C4.53395 8.43797 4.23163 8.09237 4.03191 7.73197L4.02941 7.72797L4.02663 7.72322C3.62023 7.037 3.3872 6.23841 3.38695 5.38172C3.3872 4.10662 3.90276 2.95591 4.73813 2.12003C5.57407 1.28438 6.72479 0.769063 7.99988 0.768813C9.27501 0.769063 10.4257 1.28437 11.2616 2.12C12.097 2.95587 12.6125 4.10659 12.6128 5.38169C12.6125 6.23838 12.3795 7.03697 11.9731 7.72319Z" fill="#5F488A"/>
</g>
<defs>
<clipPath id="clip0_2134_7358">
<rect width="16" height="16" fill="white"/>
</clipPath>
</defs>
</svg>
