<svg width="33" height="33" viewBox="0 0 33 33" fill="none" xmlns="http://www.w3.org/2000/svg">
<path d="M14.1006 14.7986L14.0882 14.7795C14.0758 14.7671 14.0634 14.7481 14.0444 14.7233C14.0005 14.6738 13.9443 14.6043 13.8691 14.5167C13.7128 14.3358 13.4937 14.1044 13.2317 13.8168C12.6819 13.3854 12.0502 12.9978 11.5005 12.9978C10.9507 12.9978 10.319 13.3854 9.76929 13.8168C9.50633 14.1044 9.28815 14.3358 9.13189 14.5167C9.05662 14.6043 8.9442 14.6729 8.95658 14.7233C8.88131 14.7481 8.92514 14.7671 8.91275 14.7795L8.90037 14.7986C8.76889 14.9738 8.54403 15.0424 8.34395 14.9738C8.1372 14.9052 8 14.711 8 14.4986C7.99905 13.3806 8.41827 12.2741 9.03661 11.4494C9.64925 10.6371 10.5306 10 11.4995 10C12.4685 10 13.3498 10.6371 13.9624 11.4494C14.5817 12.2741 15 13.3797 15 14.4986C15 14.711 14.8628 14.9043 14.6561 14.9738C14.456 15.0424 14.2311 14.9738 14.0996 14.7986H14.1006Z" fill="#5F488A"/>
<path d="M23.0998 14.7986L23.0874 14.7795C23.075 14.7671 23.0626 14.7481 23.0435 14.7233C22.9997 14.6738 22.9435 14.6043 22.8683 14.5167C22.712 14.3358 22.4929 14.1044 22.2309 13.8168C21.6813 13.3854 21.0497 12.9978 20.5 12.9978C19.9503 12.9978 19.3187 13.3854 18.7691 13.8168C18.5061 14.1044 18.288 14.3358 18.1317 14.5167C18.0565 14.6043 17.9441 14.6729 17.9565 14.7233C17.8812 14.7481 17.925 14.7671 17.9126 14.7795L17.9002 14.7986C17.7688 14.9738 17.544 15.0424 17.3439 14.9738C17.1372 14.9052 17 14.711 17 14.4986C17 13.3806 17.4192 12.2741 18.0374 11.4494C18.65 10.6371 19.5312 10 20.5 10C21.4688 10 22.35 10.6371 22.9626 11.4494C23.5818 12.2741 24 13.3797 24 14.4986C24 14.711 23.8628 14.9043 23.6561 14.9738C23.456 15.0424 23.2312 14.9738 23.0998 14.7986Z" fill="#5F488A"/>
<path d="M8.5 19.5C11 21 16.5 24.286 24 19.5C21.5 23.5 14.9 27.9 8.5 19.5Z" stroke="#545455" stroke-linejoin="round"/>
<circle cx="16.5" cy="16.5" r="16" stroke="#545455"/>
</svg>
