<svg width="20" height="20" viewBox="0 0 20 20" fill="none" xmlns="http://www.w3.org/2000/svg">
<g clip-path="url(#clip0_84_7809)">
<path d="M11.668 15.832C11.668 15.3737 11.293 14.9987 10.8346 14.9987H3.33464V9.9987H18.3346V4.9987C18.3346 4.08203 17.5846 3.33203 16.668 3.33203H3.33464C2.40964 3.33203 1.6763 4.0737 1.6763 4.9987L1.66797 14.9987C1.66797 15.9237 2.40964 16.6654 3.33464 16.6654H10.8346C11.293 16.6654 11.668 16.2904 11.668 15.832ZM16.668 6.66536H3.33464V4.9987H16.668V6.66536ZM16.668 18.332C16.2096 18.332 15.8346 17.957 15.8346 17.4987V15.832H14.168C13.7096 15.832 13.3346 15.457 13.3346 14.9987C13.3346 14.5404 13.7096 14.1654 14.168 14.1654H15.8346V12.4987C15.8346 12.0404 16.2096 11.6654 16.668 11.6654C17.1263 11.6654 17.5013 12.0404 17.5013 12.4987V14.1654H19.168C19.6263 14.1654 20.0013 14.5404 20.0013 14.9987C20.0013 15.457 19.6263 15.832 19.168 15.832H17.5013V17.4987C17.5013 17.957 17.1263 18.332 16.668 18.332Z" fill="#5F488A"/>
</g>
<defs>
<clipPath id="clip0_84_7809">
<rect width="20" height="20" fill="white"/>
</clipPath>
</defs>
</svg>
