<svg width="35" height="31" viewBox="0 0 35 31" fill="none" xmlns="http://www.w3.org/2000/svg">
<path d="M33.6399 11.5872L33.6412 11.591C33.764 11.9369 33.7711 12.3072 33.6619 12.6563C33.5525 13.006 33.3293 13.3247 33.0135 13.5671C33.0134 13.5671 33.0134 13.5671 33.0134 13.5671L26.107 18.8432L25.8409 19.0465L25.9276 19.37L28.1128 27.5237L28.1127 27.5238L28.1161 27.5353C28.1932 27.7977 28.2037 28.0719 28.1471 28.3379C28.0905 28.604 27.9674 28.8581 27.7841 29.0798C27.6005 29.3017 27.3611 29.4854 27.0821 29.6139C26.8038 29.7419 26.4953 29.8107 26.1806 29.8134C25.7968 29.8113 25.4244 29.7079 25.1081 29.5191L25.1081 29.5191L25.1027 29.516L17.3856 25.0392L17.2692 24.9717H17.1347H17.1042H16.9693L16.8528 25.0394L9.6865 29.2071C9.68638 29.2072 9.68626 29.2073 9.68613 29.2073C9.30534 29.4279 8.85772 29.541 8.40108 29.5285C7.94496 29.516 7.50673 29.3789 7.14232 29.1391C6.76568 28.8862 6.48722 28.5401 6.33562 28.1502C6.18407 27.7605 6.16402 27.3401 6.27699 26.9411L6.27777 26.9383L8.34076 19.4862L8.43013 19.1634L8.16561 18.958L1.22784 13.5689L1.22785 13.5689L1.22551 13.5671C0.909625 13.3247 0.686426 13.0061 0.577006 12.6563C0.467779 12.3072 0.474824 11.9369 0.597668 11.591L0.598258 11.5893C0.71745 11.2498 0.947373 10.9438 1.26587 10.7154C1.58468 10.4868 1.97542 10.3483 2.38797 10.3229C2.38808 10.3228 2.3882 10.3228 2.38831 10.3228L11.4031 9.78961L11.709 9.77152L11.8318 9.49075L15.2548 1.65979L15.2548 1.6598L15.2563 1.65629C15.3979 1.32556 15.6475 1.03431 15.9799 0.82541C16.3122 0.616592 16.7092 0.501777 17.1194 0.500004C17.5296 0.501777 17.9266 0.616591 18.259 0.82541C18.5914 1.03431 18.841 1.32556 18.9825 1.65629L18.9832 1.65768L22.3451 9.44653L22.4666 9.72799L22.7725 9.74738L31.8497 10.3228L31.8525 10.3229C32.2651 10.3468 32.6563 10.4845 32.975 10.7131C33.2933 10.9413 33.5224 11.2476 33.6399 11.5872Z" stroke="#5F488A"/>
</svg>
