<svg width="28" height="28" viewBox="0 0 28 28" fill="none" xmlns="http://www.w3.org/2000/svg">
<path d="M24.6667 13.9998C24.6667 11.1709 23.5429 8.45775 21.5426 6.45736C19.5422 4.45698 16.8291 3.33317 14.0001 3.33317C11.1711 3.33317 8.458 4.45698 6.45761 6.45736C4.45722 8.45775 3.33341 11.1709 3.33341 13.9998C3.33341 16.8288 4.45722 19.5419 6.45761 21.5423C8.458 23.5427 11.1711 24.6665 14.0001 24.6665C16.8291 24.6665 19.5422 23.5427 21.5426 21.5423C23.5429 19.5419 24.6667 16.8288 24.6667 13.9998ZM27.3334 13.9998C27.3334 17.5361 25.9287 20.9274 23.4282 23.4279C20.9277 25.9284 17.5363 27.3332 14.0001 27.3332C12.2491 27.3332 10.5153 26.9883 8.89763 26.3182C7.27996 25.6482 5.81011 24.666 4.57199 23.4279C2.07151 20.9274 0.666748 17.5361 0.666748 13.9998C0.666748 10.4636 2.07151 7.07223 4.57199 4.57175C7.07248 2.07126 10.4639 0.666504 14.0001 0.666504C15.751 0.666504 17.4849 1.01138 19.1025 1.68144C20.7202 2.35151 22.1901 3.33363 23.4282 4.57175C24.6663 5.80986 25.6484 7.27972 26.3185 8.89739C26.9885 10.5151 27.3334 12.2489 27.3334 13.9998ZM11.3334 10.6665C11.3334 11.7332 10.4001 12.6665 9.33341 12.6665C8.26675 12.6665 7.33341 11.7332 7.33341 10.6665C7.33341 9.59984 8.26675 8.6665 9.33341 8.6665C10.4001 8.6665 11.3334 9.59984 11.3334 10.6665ZM20.6667 10.6665C20.6667 11.7332 19.7334 12.6665 18.6667 12.6665C17.6001 12.6665 16.6667 11.7332 16.6667 10.6665C16.6667 9.59984 17.6001 8.6665 18.6667 8.6665C19.7334 8.6665 20.6667 9.59984 20.6667 10.6665ZM14.0001 20.9732C11.6667 20.9732 9.61341 19.9998 8.41341 18.5598L10.3067 16.6665C10.9067 17.6265 12.3334 18.3065 14.0001 18.3065C15.6667 18.3065 17.0934 17.6265 17.6934 16.6665L19.5867 18.5598C18.3867 19.9998 16.3334 20.9732 14.0001 20.9732Z" fill="#5F488A"/>
</svg>
