<svg width="28" height="28" viewBox="0 0 28 28" fill="none" xmlns="http://www.w3.org/2000/svg">
<path d="M13.9867 0.666504C6.62675 0.666504 0.666748 6.63984 0.666748 13.9998C0.666748 21.3598 6.62675 27.3332 13.9867 27.3332C21.3601 27.3332 27.3334 21.3598 27.3334 13.9998C27.3334 6.63984 21.3601 0.666504 13.9867 0.666504ZM14.0001 24.6665C8.10675 24.6665 3.33341 19.8932 3.33341 13.9998C3.33341 8.1065 8.10675 3.33317 14.0001 3.33317C19.8934 3.33317 24.6667 8.1065 24.6667 13.9998C24.6667 19.8932 19.8934 24.6665 14.0001 24.6665ZM18.6667 12.6665C19.7734 12.6665 20.6667 11.7732 20.6667 10.6665C20.6667 9.55984 19.7734 8.6665 18.6667 8.6665C17.5601 8.6665 16.6667 9.55984 16.6667 10.6665C16.6667 11.7732 17.5601 12.6665 18.6667 12.6665ZM9.33341 12.6665C10.4401 12.6665 11.3334 11.7732 11.3334 10.6665C11.3334 9.55984 10.4401 8.6665 9.33341 8.6665C8.22675 8.6665 7.33341 9.55984 7.33341 10.6665C7.33341 11.7732 8.22675 12.6665 9.33341 12.6665ZM14.0001 21.3332C17.1067 21.3332 19.7467 19.3865 20.8134 16.6665H7.18675C8.25341 19.3865 10.8934 21.3332 14.0001 21.3332Z" fill="#5F488A"/>
</svg>
