<svg width="28" height="28" viewBox="0 0 28 28" fill="none" xmlns="http://www.w3.org/2000/svg">
<path d="M14.0001 0.666504C12.2491 0.666504 10.5153 1.01138 8.89763 1.68144C7.27996 2.35151 5.81011 3.33363 4.57199 4.57175C2.07151 7.07223 0.666748 10.4636 0.666748 13.9998C0.666748 17.5361 2.07151 20.9274 4.57199 23.4279C5.81011 24.666 7.27996 25.6482 8.89763 26.3182C10.5153 26.9883 12.2491 27.3332 14.0001 27.3332C17.5363 27.3332 20.9277 25.9284 23.4282 23.4279C25.9287 20.9274 27.3334 17.5361 27.3334 13.9998C27.3334 12.2489 26.9885 10.5151 26.3185 8.89739C25.6484 7.27972 24.6663 5.80986 23.4282 4.57175C22.1901 3.33363 20.7202 2.35151 19.1025 1.68144C17.4849 1.01138 15.751 0.666504 14.0001 0.666504ZM14.0001 24.6665C11.1711 24.6665 8.458 23.5427 6.45761 21.5423C4.45722 19.5419 3.33341 16.8288 3.33341 13.9998C3.33341 11.1709 4.45722 8.45775 6.45761 6.45736C8.458 4.45698 11.1711 3.33317 14.0001 3.33317C16.8291 3.33317 19.5422 4.45698 21.5426 6.45736C23.5429 8.45775 24.6667 11.1709 24.6667 13.9998C24.6667 16.8288 23.5429 19.5419 21.5426 21.5423C19.5422 23.5427 16.8291 24.6665 14.0001 24.6665ZM9.33341 12.6665C8.80298 12.6665 8.29427 12.4558 7.9192 12.0807C7.54413 11.7056 7.33341 11.1969 7.33341 10.6665C7.33341 10.1361 7.54413 9.62736 7.9192 9.25229C8.29427 8.87722 8.80298 8.6665 9.33341 8.6665C9.86385 8.6665 10.3726 8.87722 10.7476 9.25229C11.1227 9.62736 11.3334 10.1361 11.3334 10.6665C11.3334 11.1969 11.1227 11.7056 10.7476 12.0807C10.3726 12.4558 9.86385 12.6665 9.33341 12.6665ZM20.6667 10.6665C20.6667 11.1969 20.456 11.7056 20.081 12.0807C19.7059 12.4558 19.1972 12.6665 18.6667 12.6665C18.1363 12.6665 17.6276 12.4558 17.2525 12.0807C16.8775 11.7056 16.6667 11.1969 16.6667 10.6665C16.6667 10.1361 16.8775 9.62736 17.2525 9.25229C17.6276 8.87722 18.1363 8.6665 18.6667 8.6665C19.1972 8.6665 19.7059 8.87722 20.081 9.25229C20.456 9.62736 20.6667 10.1361 20.6667 10.6665ZM19.3334 16.6665V19.3332H8.66675V16.6665H19.3334Z" fill="#5F488A"/>
</svg>
