<svg width="28" height="28" viewBox="0 0 28 28" fill="none" xmlns="http://www.w3.org/2000/svg">
<path d="M24.6668 13.9998C24.6668 11.8902 24.0412 9.82788 22.8691 8.07375C21.697 6.31963 20.0311 4.95246 18.082 4.14512C16.133 3.33779 13.9883 3.12655 11.9191 3.53813C9.84999 3.9497 7.94938 4.9656 6.45762 6.45736C4.96585 7.94912 3.94995 9.84974 3.53838 11.9189C3.1268 13.988 3.33804 16.1327 4.14537 18.0818C4.95271 20.0309 6.31988 21.6968 8.074 22.8688C9.82813 24.0409 11.8904 24.6665 14.0001 24.6665C16.8291 24.6665 19.5422 23.5427 21.5426 21.5423C23.5429 19.5419 24.6668 16.8288 24.6668 13.9998ZM27.3334 13.9998C27.3334 16.6369 26.5514 19.2148 25.0863 21.4074C23.6213 23.6001 21.5389 25.3091 19.1025 26.3182C16.6662 27.3274 13.9853 27.5914 11.3989 27.077C8.81247 26.5625 6.4367 25.2926 4.572 23.4279C2.7073 21.5632 1.43742 19.1875 0.92295 16.601C0.408481 14.0146 0.672525 11.3337 1.68169 8.89739C2.69086 6.46104 4.39983 4.37866 6.59248 2.91358C8.78514 1.44849 11.363 0.666504 14.0001 0.666504C15.751 0.666504 17.4849 1.01138 19.1025 1.68144C20.7202 2.35151 22.1901 3.33363 23.4282 4.57175C24.6663 5.80986 25.6484 7.27972 26.3185 8.89739C26.9885 10.5151 27.3334 12.2489 27.3334 13.9998M18.6668 8.6665C19.0623 8.6665 19.449 8.7838 19.7779 9.00356C20.1068 9.22333 20.3631 9.53568 20.5145 9.90114C20.6659 10.2666 20.7055 10.6687 20.6283 11.0567C20.5512 11.4446 20.3607 11.801 20.081 12.0807C19.8013 12.3604 19.4449 12.5509 19.0569 12.6281C18.669 12.7052 18.2668 12.6656 17.9014 12.5143C17.5359 12.3629 17.2236 12.1065 17.0038 11.7776C16.7841 11.4487 16.6668 11.0621 16.6668 10.6665C16.6803 10.1403 16.8953 9.63942 17.2675 9.26724C17.6397 8.89505 18.1406 8.68 18.6668 8.6665M11.3334 10.6665C11.3334 11.0621 11.2161 11.4487 10.9964 11.7776C10.7766 12.1065 10.4642 12.3629 10.0988 12.5143C9.73334 12.6656 9.3312 12.7052 8.94324 12.6281C8.55528 12.5509 8.19891 12.3604 7.91921 12.0807C7.6395 11.801 7.44902 11.4446 7.37185 11.0567C7.29468 10.6687 7.33429 10.2666 7.48566 9.90114C7.63704 9.53568 7.89338 9.22333 8.22228 9.00356C8.55118 8.7838 8.93786 8.6665 9.33342 8.6665C9.8596 8.68 10.3605 8.89505 10.7327 9.26724C11.1049 9.63942 11.3199 10.1403 11.3334 10.6665M20.6668 17.9998H15.3334C14.3959 17.9985 13.4746 18.2442 12.6623 18.7124C11.85 19.1806 11.1755 19.8546 10.7068 20.6665L8.40009 19.3332C9.10267 18.1163 10.1134 17.1059 11.3305 16.4037C12.5476 15.7015 13.9283 15.3323 15.3334 15.3332H20.6668V17.9998Z" fill="#5F488A"/>
</svg>
